HIERARCHY
ROOT joint_Root
{
	OFFSET 0.0 0.0 0.0
	CHANNELS 6 Xposition Yposition Zposition Zrotation Xrotation Yrotation 
	JOINT Hips
	{
		OFFSET 4.5925 91.4895 -427.239
		CHANNELS 6 Xposition Yposition Zposition Zrotation Xrotation Yrotation 
		JOINT Spine
		{
			OFFSET 15.7357 0.0 0.0
			CHANNELS 6 Xposition Yposition Zposition Zrotation Xrotation Yrotation 
			JOINT Chest
			{
				OFFSET 8.98455 -0.406207 0.0
				CHANNELS 6 Xposition Yposition Zposition Zrotation Xrotation Yrotation 
				JOINT Neck
				{
					OFFSET 16.3773 0.0 0.0
					CHANNELS 6 Xposition Yposition Zposition Zrotation Xrotation Yrotation 
					JOINT Head
					{
						OFFSET 6.45672 0.0 0.0
						CHANNELS 6 Xposition Yposition Zposition Zrotation Xrotation Yrotation 
						End Site
						{
							OFFSET 0.0 0.0 0.0
						}
					}
				}
				JOINT Shoulder_L
				{
					OFFSET 12.9942 -0.242716 4.98039
					CHANNELS 6 Xposition Yposition Zposition Zrotation Xrotation Yrotation 
					JOINT UpperArm_L
					{
						OFFSET 5.34809 0.0 0.0
						CHANNELS 6 Xposition Yposition Zposition Zrotation Xrotation Yrotation 
						JOINT LowerArm_L
						{
							OFFSET 24.3286 1.87007e-05 0.0
							CHANNELS 6 Xposition Yposition Zposition Zrotation Xrotation Yrotation 
							JOINT Hand_L
							{
								OFFSET 22.2916 0.0 0.0
								CHANNELS 6 Xposition Yposition Zposition Zrotation Xrotation Yrotation 
								End Site
								{
									OFFSET 0.0 0.0 0.0
								}
							}
						}
					}
				}
				JOINT Shoulder_R
				{
					OFFSET 12.9945 -0.242716 -4.98039
					CHANNELS 6 Xposition Yposition Zposition Zrotation Xrotation Yrotation 
					JOINT UpperArm_R
					{
						OFFSET -5.34813 0.0 0.0
						CHANNELS 6 Xposition Yposition Zposition Zrotation Xrotation Yrotation 
						JOINT LowerArm_R
						{
							OFFSET -24.3289 0.000322201 0.0
							CHANNELS 6 Xposition Yposition Zposition Zrotation Xrotation Yrotation 
							JOINT Hand_R
							{
								OFFSET -22.2915 -0.000108084 0.0
								CHANNELS 6 Xposition Yposition Zposition Zrotation Xrotation Yrotation 
								End Site
								{
									OFFSET 0.0 0.0 0.0
								}
							}
						}
					}
				}
			}
		}
		JOINT UpperLeg_L
		{
			OFFSET -2.19248 -6.46944 0.0
			CHANNELS 6 Xposition Yposition Zposition Zrotation Xrotation Yrotation 
			JOINT LowerLeg_L
			{
				OFFSET 39.0811 0.0 -1.23785e-05
				CHANNELS 6 Xposition Yposition Zposition Zrotation Xrotation Yrotation 
				JOINT Foot_L
				{
					OFFSET 40.9854 0.0 -1.26872e-05
					CHANNELS 6 Xposition Yposition Zposition Zrotation Xrotation Yrotation 
					JOINT Toes_L
					{
						OFFSET 11.7543 0.0 0.0
						CHANNELS 6 Xposition Yposition Zposition Zrotation Xrotation Yrotation 
						End Site
						{
							OFFSET 0.0 0.0 0.0
						}
					}
				}
			}
		}
		JOINT UpperLeg_R
		{
			OFFSET -2.19251 6.46944 0.0
			CHANNELS 6 Xposition Yposition Zposition Zrotation Xrotation Yrotation 
			JOINT LowerLeg_R
			{
				OFFSET -39.0811 -0.00228153 -0.0401928
				CHANNELS 6 Xposition Yposition Zposition Zrotation Xrotation Yrotation 
				JOINT Foot_R
				{
					OFFSET -40.9854 0.0 0.0
					CHANNELS 6 Xposition Yposition Zposition Zrotation Xrotation Yrotation 
					JOINT Toes_R
					{
						OFFSET -11.7543 0.0 0.0
						CHANNELS 6 Xposition Yposition Zposition Zrotation Xrotation Yrotation 
						End Site
						{
							OFFSET 0.0 0.0 0.0
						}
					}
				}
			}
		}
	}
}
MOTION
Frames:	6
Frame Time:	0.0333333
0.000000 0.000000 0.000000 0.000000 0.000000 -0.000000 -0.476169 89.944000 -46.231600 90.457300 0.628010 -1.263680 15.735700 0.000005 -0.000001 67.497700 82.739500 -67.217800 8.984550 -0.406207 -0.000000 5.683980 -5.549040 0.835080 16.377300 -0.000001 -0.000001 -3.172670 -2.288000 0.704165 6.456720 -0.000001 -0.000000 -6.354230 0.675323 -0.569921 12.994200 -0.242716 4.980390 -90.310900 1.189060 -75.348500 5.348090 -0.000007 -0.000001 -63.308000 23.123000 -22.003300 24.328600 0.000019 0.000005 11.921600 0.933123 -85.590300 22.291600 -0.000001 0.000005 24.917800 5.522670 -7.475380 12.994500 -0.242716 -4.980390 88.361900 9.042120 -79.686900 -5.348130 -0.000001 -0.000004 -66.804300 32.148900 8.003640 -24.328900 0.000322 -0.000009 -17.198000 -5.355640 -73.217200 -22.291500 -0.000108 -0.000004 23.401000 5.654930 -15.506200 -2.192480 -6.469440 -0.000000 -177.430000 -8.191360 -4.479440 39.081100 -0.000007 -0.000012 0.054599 -0.054418 45.093400 40.985400 -0.000006 -0.000013 3.200900 3.592440 -60.457800 11.754300 -0.000000 0.000003 -0.105365 -0.457689 -35.706500 -2.192510 6.469440 -0.000001 -173.656000 17.001700 150.032000 -39.081100 -0.002282 -0.040193 0.044760 -0.076883 28.333200 -40.985400 0.000008 0.000006 4.546740 2.892640 -62.775800 -11.754300 -0.000006 -0.000006 -0.019075 -0.162114 -23.194700
0.000000 0.000000 0.000000 0.000000 0.000000 -0.000000 -0.841297 89.225700 -40.244800 91.182800 0.212552 -0.209738 15.735700 0.000005 -0.000001 70.234500 82.725700 -70.040700 8.984550 -0.406207 -0.000000 5.950720 -4.910060 0.642564 16.377300 -0.000001 -0.000001 -2.513310 -2.348490 0.474907 6.456720 -0.000001 -0.000000 -6.217610 0.443498 -1.238670 12.994200 -0.242716 4.980390 -90.492400 1.828510 -74.927300 5.348090 -0.000007 -0.000001 -62.225600 26.225700 -19.131100 24.328600 0.000019 0.000005 13.961900 2.088640 -81.663300 22.291600 -0.000001 0.000005 22.694300 5.516180 -7.199770 12.994500 -0.242716 -4.980390 88.305100 9.320230 -79.645700 -5.348130 -0.000001 -0.000004 -64.279700 31.827400 3.048730 -24.328900 0.000322 -0.000009 -16.854900 -4.397710 -75.795000 -22.291500 -0.000108 -0.000004 23.166000 5.652110 -15.220200 -2.192480 -6.469440 -0.000000 -177.096000 -8.947750 -7.141070 39.081100 -0.000007 -0.000012 0.112366 -0.078468 55.070800 40.985400 -0.000006 -0.000013 2.899470 3.551000 -51.798700 11.754300 -0.000000 0.000003 -0.053018 -0.308375 -29.288500 -2.192510 6.469440 -0.000001 -175.488000 15.505900 151.093000 -39.081100 -0.002282 -0.040193 0.003293 0.000001 34.018300 -40.985400 0.000008 0.000006 6.254260 -0.288861 -58.182600 -11.754300 -0.000006 -0.000006 -0.018874 -0.160971 -23.147700
0.000000 0.000000 0.000000 0.000000 0.000000 -0.000000 -1.211760 87.833900 -34.558200 91.241300 -0.638909 0.947210 15.735700 0.000005 -0.000001 76.456100 82.677400 -76.095600 8.984550 -0.406207 -0.000000 6.491680 -3.423400 0.914523 16.377300 -0.000001 -0.000001 -2.520160 -2.495450 0.380436 6.456720 -0.000001 -0.000000 -5.900110 -0.040674 -1.960700 12.994200 -0.242716 4.980390 -90.725500 2.692980 -74.916300 5.348090 -0.000007 -0.000001 -61.220900 29.603100 -15.555600 24.328600 0.000019 0.000005 15.087000 3.607110 -76.862800 22.291600 -0.000001 0.000005 20.065500 5.527100 -7.672580 12.994500 -0.242716 -4.980390 88.226100 10.036400 -79.922700 -5.348130 -0.000001 -0.000004 -60.094900 30.402800 -3.221320 -24.328900 0.000322 -0.000009 -18.448200 -3.251150 -80.348800 -22.291500 -0.000108 -0.000004 23.828100 5.649090 -14.928800 -2.192480 -6.469440 -0.000000 -176.587000 -9.405580 -11.552900 39.081100 -0.000007 -0.000012 0.180198 -0.079498 66.192900 40.985400 -0.000006 -0.000013 1.280670 0.122015 -45.552000 11.754300 -0.000000 0.000003 -0.003052 -0.041196 -18.252200 -2.192510 6.469440 -0.000001 -176.800000 12.845500 151.579000 -39.081100 -0.002282 -0.040193 -0.245756 0.262961 43.441100 -40.985400 0.000008 0.000006 6.429690 -2.267320 -65.382600 -11.754300 -0.000006 -0.000006 -0.010457 -0.107020 -20.934000
0.000000 0.000000 0.000000 0.000000 0.000000 -0.000000 -1.504780 86.462600 -29.355600 90.496100 -2.352920 2.510860 15.735700 0.000005 -0.000001 83.963600 81.988700 -83.238300 8.984550 -0.406207 -0.000000 8.181370 -1.674800 1.569200 16.377300 -0.000001 -0.000001 -3.306510 -2.242590 0.810189 6.456720 -0.000001 -0.000000 -6.456160 -0.222866 -2.238120 12.994200 -0.242716 4.980390 -90.866300 3.222160 -74.942200 5.348090 -0.000007 -0.000001 -62.154600 31.808600 -10.868200 24.328600 0.000019 0.000005 13.162600 4.746910 -70.507600 22.291600 -0.000001 0.000005 20.539800 5.554000 -8.894270 12.994500 -0.242716 -4.980390 88.364700 10.725300 -81.278100 -5.348130 -0.000001 -0.000004 -54.731800 27.677700 -12.155200 -24.328900 0.000322 -0.000009 -19.378700 -2.084560 -84.094700 -22.291500 -0.000108 -0.000004 25.715600 5.649000 -14.918900 -2.192480 -6.469440 -0.000000 -176.301000 -10.150000 -15.550300 39.081100 -0.000007 -0.000012 0.149645 -0.038546 75.553300 40.985400 -0.000006 -0.000013 4.800750 -3.811260 -51.790500 11.754300 -0.000000 0.000003 -0.004320 -0.054734 -18.803400 -2.192510 6.469440 -0.000001 -176.477000 11.252700 153.854000 -39.081100 -0.002282 -0.040193 -0.064588 0.057392 49.767400 -40.985400 0.000008 0.000006 9.172830 -3.576260 -72.156800 -11.754300 -0.000006 -0.000006 -0.003306 -0.044014 -18.363200
0.000000 0.000000 0.000000 0.000000 0.000000 -0.000000 -1.816200 85.520700 -24.537600 90.228400 -2.478910 2.953080 15.735700 0.000005 -0.000001 86.704000 81.670800 -85.756900 8.984550 -0.406207 -0.000000 8.874230 -0.943697 1.965790 16.377300 -0.000001 -0.000001 -3.500540 -2.342210 1.127930 6.456720 -0.000001 -0.000000 -6.680320 -0.391290 -2.154910 12.994200 -0.242716 4.980390 -90.987400 3.683690 -74.983800 5.348090 -0.000007 -0.000001 -63.833700 33.485100 -4.809790 24.328600 0.000019 0.000005 10.102500 4.893140 -64.416300 22.291600 -0.000001 0.000005 21.358200 5.553270 -8.859560 12.994500 -0.242716 -4.980390 88.498900 10.718600 -81.980200 -5.348130 -0.000001 -0.000004 -50.768500 24.461500 -21.491800 -24.328900 0.000322 -0.000009 -18.837500 -1.537240 -85.502900 -22.291500 -0.000108 -0.000004 26.773300 5.647960 -14.823700 -2.192480 -6.469440 -0.000000 -176.950000 -9.077890 -21.338700 39.081100 -0.000007 -0.000012 0.085990 -0.014240 80.592300 40.985400 -0.000006 -0.000013 6.491970 -4.801860 -55.183800 11.754300 -0.000000 0.000003 -0.003682 -0.048095 -18.533000 -2.192510 6.469440 -0.000001 -176.802000 12.874200 156.462000 -39.081100 -0.002282 -0.040193 0.085141 -0.061472 53.111000 -40.985400 0.000008 0.000006 10.295500 -3.103660 -77.722700 -11.754300 -0.000006 -0.000006 -0.000653 -0.010343 -16.993900
0.000000 0.000000 0.000000 0.000000 0.000000 -0.000000 -2.002770 85.245900 -19.848200 90.115200 -3.108880 2.547680 15.735700 0.000005 -0.000001 90.585300 81.770300 -89.591200 8.984550 -0.406207 -0.000000 8.691780 0.175348 1.973100 16.377300 -0.000001 -0.000001 -3.306850 -2.507360 1.521950 6.456720 -0.000001 -0.000000 -6.297470 -0.825933 -2.251310 12.994200 -0.242716 4.980390 -91.055500 3.867300 -74.721300 5.348090 -0.000007 -0.000001 -65.832800 34.172900 2.402800 24.328600 0.000019 0.000005 9.693060 5.129510 -62.370700 22.291600 -0.000001 0.000005 20.183600 5.545670 -8.502900 12.994500 -0.242716 -4.980390 88.751500 9.834940 -82.728900 -5.348130 -0.000001 -0.000004 -49.532000 21.119700 -28.665700 -24.328900 0.000322 -0.000009 -18.352600 -1.395040 -85.801600 -22.291500 -0.000108 -0.000004 26.817400 5.648910 -14.912700 -2.192480 -6.469440 -0.000000 -177.867000 -8.972530 -26.778500 39.081100 -0.000007 -0.000012 0.052497 -0.009052 80.208700 40.985400 -0.000006 -0.000013 6.444750 -3.956390 -59.246700 11.754300 -0.000000 0.000003 -0.003801 -0.049363 -18.584700 -2.192510 6.469440 -0.000001 -177.596000 13.850000 159.452000 -39.081100 -0.002282 -0.040193 0.074607 -0.052358 53.737400 -40.985400 0.000008 0.000006 9.841470 -1.954490 -80.955100 -11.754300 -0.000006 -0.000006 -0.550801 -0.676637 -16.996500
